<?xml version="1.0" encoding="iso-8859-1"?>
<!-- Generator: Adobe Illustrator 19.0.0, SVG Export Plug-In . SVG Version: 6.00 Build 0)  -->
<svg version="1.1" id="Capa_1" xmlns="http://www.w3.org/2000/svg" xmlns:xlink="http://www.w3.org/1999/xlink" x="0px" y="0px"
	 viewBox="0 0 512 512" style="enable-background:new 0 0 512 512;" xml:space="preserve">
<path style="fill:#A6D5FA;" d="M329.763,446.915v-60.746H0v60.746c0,33.549,27.197,60.746,60.746,60.746l0,0h329.763
	C356.959,507.661,329.763,480.464,329.763,446.915L329.763,446.915z"/>
<path style="fill:#B7E5FF;" d="M182.237,4.339c-33.549,0-60.746,27.197-60.746,60.746v321.085h208.271v60.746
	c0,33.549,27.197,60.746,60.746,60.746s60.746-27.197,60.746-60.746l0,0V65.085c0-33.549,27.197-60.746,60.746-60.746H182.237z"/>
<path style="fill:#3F51B4;" d="M399.186,342.78v-17.356h-17.356v17.356c-14.379,0-26.034,11.654-26.034,26.034v17.356
	c0,14.379,11.655,26.034,26.034,26.034h17.356c4.79,0,8.678,3.888,8.678,8.678v17.356c0,4.79-3.888,8.678-8.678,8.678h-17.356
	c-4.79,0-8.678-3.888-8.678-8.678v-8.678h-17.356v8.678c0,14.379,11.655,26.034,26.034,26.034v17.356h17.356v-17.356
	c14.379,0,26.034-11.654,26.034-26.034v-17.356c0-14.379-11.654-26.034-26.034-26.034h-17.356c-4.79,0-8.678-3.888-8.678-8.678
	v-17.356c0-4.79,3.888-8.678,8.678-8.678h17.356c4.79,0,8.678,3.888,8.678,8.678v8.678h17.356v-8.678
	C425.22,354.434,413.566,342.78,399.186,342.78z"/>
<g>
	<rect x="164.881" y="221.288" style="fill:#2195F2;" width="52.068" height="17.356"/>
	<rect x="199.593" y="30.373" style="fill:#2195F2;" width="173.559" height="17.356"/>
	<rect x="147.525" y="65.085" style="fill:#2195F2;" width="277.695" height="17.356"/>
	<rect x="164.881" y="117.153" style="fill:#2195F2;" width="86.78" height="17.356"/>
	<rect x="164.881" y="151.864" style="fill:#2195F2;" width="69.424" height="17.356"/>
	<rect x="164.881" y="186.576" style="fill:#2195F2;" width="104.136" height="17.356"/>
	<rect x="164.881" y="256" style="fill:#2195F2;" width="86.78" height="17.356"/>
	<rect x="373.153" y="117.153" style="fill:#2195F2;" width="34.712" height="17.356"/>
	<rect x="373.153" y="151.864" style="fill:#2195F2;" width="34.712" height="17.356"/>
	<rect x="373.153" y="186.576" style="fill:#2195F2;" width="34.712" height="17.356"/>
	<rect x="373.153" y="221.288" style="fill:#2195F2;" width="34.712" height="17.356"/>
	<rect x="373.153" y="256" style="fill:#2195F2;" width="34.712" height="17.356"/>
	<rect x="164.881" y="342.78" style="fill:#2195F2;" width="138.847" height="17.356"/>
	<rect x="164.881" y="308.068" style="fill:#2195F2;" width="138.847" height="17.356"/>
</g>
<g>
</g>
<g>
</g>
<g>
</g>
<g>
</g>
<g>
</g>
<g>
</g>
<g>
</g>
<g>
</g>
<g>
</g>
<g>
</g>
<g>
</g>
<g>
</g>
<g>
</g>
<g>
</g>
<g>
</g>
</svg>
